:FULLY-SPECIFIED
:FORCE-ALL-JOINTS-BE-3DOF
:DEGREES
374
root 6.32508 16.5033 -16.2677 9.49733 -17.7961 -6.30068
lfemur -46.4493 22.7984 -13.75
ltibia 66.0734 -0 0
lfoot -10.1425 -1.48489 -0.00378722
ltoes 13.3147 -0 0
rfemur -23.9932 -2.91167 31.3162
rtibia 41.5294 -0 0
rfoot -21.6914 0.696127 0.000214261
rtoes 17.9731 -0 0
lowerback 5.2655 1.75805 3.54785
upperback 2.59395 2.49629 0.991611
thorax -0.170454 1.26653 -1.09875
lowerneck -7.82475 -1.18909 3.05543
upperneck -0.525788 -1.90737 2.04649
head 1.13538 -0.918213 0.0606397
lclavicle 0 0 0
lhumerus -40.0055 -23.1845 94.605
lradius 55.9453 -0 0
lwrist 18.3001 0 0
lhand -21.7917 2.36549 0.00455075
lfingers 0 0 0
lthumb 4.6098 32.2924 0.0039627
rclavicle 0 0 0
rhumerus -37.5612 13.0374 -93.5544
rradius 60.3587 -0 0
rwrist 9.90018 0 0
rhand -9.28354 -18.9051 0.0109285
rfingers 0 0 0
rthumb 16.6733 -48.2055 0.0111658
375
root 6.15199 16.5071 -15.766 9.52824 -17.9555 -6.34567
lfemur -46.784 22.7648 -13.9173
ltibia 65.8075 0 0
lfoot -10.2068 -1.35054 0
ltoes 13.3356 0 0
rfemur -23.8511 -2.77204 31.3528
rtibia 41.4743 0 0
rfoot -21.7708 0.689972 0
rtoes 18.0634 0 0
lowerback 5.28641 1.78073 3.59832
upperback 2.59657 2.52951 0.979941
thorax -0.17678 1.28344 -1.14082
lowerneck -7.81997 -1.15941 3.09448
upperneck -0.524184 -1.87056 2.01631
head 1.13391 -0.90045 0.0459868
lclavicle -2.28602e-15 0 0
lhumerus -39.9416 -23.2189 94.5087
lradius 55.8802 0 0
lwrist 18.282 0 0
lhand -21.9529 2.30116 0
lfingers 7.12502 0 0
lthumb 4.45424 32.2343 0
rclavicle -2.28602e-15 0 0
rhumerus -37.5524 13.1367 -93.5797
rradius 60.1793 0 0
rwrist 10.0238 0 0
rhand -9.12801 -18.7452 0
rfingers 7.12502 0 0
rthumb 16.8232 -48.036 0
376
root 6.10497 16.5087 -15.6296 9.49091 -18.3321 -6.42625
lfemur -46.3417 21.8874 -13.4884
ltibia 63.9262 -0 0
lfoot -10.0223 -0.435605 0.0228516
ltoes 13.4183 -0 0
rfemur -23.2071 -2.61128 31.3674
rtibia 41.2411 -0 0
rfoot -21.9157 0.667917 0.000430429
rtoes 17.9794 -0 0
lowerback 5.204 1.8542 3.66203
upperback 2.56527 2.62766 0.946866
thorax -0.151775 1.33304 -1.21078
lowerneck -7.73686 -1.12157 3.18813
upperneck -0.437135 -1.82726 1.99584
head 1.14701 -0.877514 0.0254972
lclavicle 0 0 0
lhumerus -40.0166 -23.1178 94.3942
lradius 55.7556 -0 0
lwrist 18.2844 0 0
lhand -21.6868 2.43095 0.00465446
lfingers 0 0 0
lthumb 4.71117 32.3561 0.0042163
rclavicle 0 0 0
rhumerus -37.7342 13.2916 -93.6487
rradius 59.9541 -0 0
rwrist 10.0675 0 0
rhand -9.39299 -18.7929 0.00170177
rfingers 0 0 0
rthumb 16.5679 -48.1024 0.00228262
377
root 6.05745 16.511 -15.4909 9.43827 -18.8715 -6.54152
lfemur -45.725 20.6257 -12.8913
ltibia 61.2319 -0 0
lfoot -9.75754 0.874791 0.0504406
ltoes 13.5367 -0 0
rfemur -22.2849 -2.38137 31.3914
rtibia 40.9071 -0 0
rfoot -22.1232 0.63633 0.000949707
rtoes 17.859 -0 0
lowerback 5.08612 1.95958 3.75308
upperback 2.52034 2.76818 0.899401
thorax -0.116069 1.40412 -1.31093
lowerneck -7.61773 -1.06762 3.32235
upperneck -0.312503 -1.76521 1.96665
head 1.16577 -0.84466 -0.00383662
lclavicle 0 0 0
lhumerus -40.1242 -22.9733 94.2302
lradius 55.5772 -0 0
lwrist 18.2879 0 0
lhand -21.3056 2.61686 0.01027
lfingers 0 0 0
lthumb 5.07914 32.5305 0.00930321
rclavicle 0 0 0
rhumerus -37.9952 13.5131 -93.7484
rradius 59.6317 -0 0
rwrist 10.13 0 0
rhand -9.77246 -18.8611 0.00375491
rfingers 0 0 0
rthumb 16.2023 -48.1974 0.00503654
378
root 6.0105 16.514 -15.3531 9.37517 -19.532 -6.68242
lfemur -44.9958 19.0733 -12.1864
ltibia 57.9338 -0 0
lfoot -9.43266 2.47905 0.0759588
ltoes 13.6816 -0 0
rfemur -21.1561 -2.10051 31.4259
rtibia 40.4982 -0 0
rfoot -22.3772 0.597662 0.00142964
rtoes 17.7116 -0 0
lowerback 4.94204 2.08883 3.86426
upperback 2.46518 2.94016 0.84114
thorax -0.0725278 1.49122 -1.43347
lowerneck -7.47174 -1.00196 3.4868
upperneck -0.159984 -1.68915 1.93109
head 1.1887 -0.804428 -0.0397303
lclavicle 0 0 0
lhumerus -40.2564 -22.7968 94.0293
lradius 55.3588 -0 0
lwrist 18.2922 0 0
lhand -20.839 2.84448 0.0154604
lfingers 0 0 0
lthumb 5.52959 32.7441 0.0140049
rclavicle 0 0 0
rhumerus -38.3155 13.7836 -93.872
rradius 59.237 -0 0
rwrist 10.2066 0 0
rhand -10.237 -18.9447 0.00565256
rfingers 0 0 0
rthumb 15.7548 -48.3138 0.0075819
379
root 5.96515 16.5173 -15.2195 9.30626 -20.2717 -6.83996
lfemur -44.2108 17.3254 -11.4291
ltibia 54.2408 -0 0
lfoot -9.0682 4.2755 0.0937251
ltoes 13.8439 -0 0
rfemur -19.8921 -1.78689 31.4711
rtibia 40.0404 -0 0
rfoot -22.6617 0.554362 0.00176357
rtoes 17.5467 -0 0
lowerback 4.781 2.23388 3.98837
upperback 2.40319 3.13265 0.775695
thorax -0.0239934 1.58885 -1.57061
lowerneck -7.30805 -0.928941 3.67113
upperneck 0.0107309 -1.60388 1.89152
head 1.21435 -0.759363 -0.0799015
lclavicle 0 0 0
lhumerus -40.405 -22.5997 93.804
lradius 55.1143 -0 0
lwrist 18.297 0 0
lhand -20.3165 3.09939 0.0190719
lfingers 0 0 0
lthumb 6.034 32.9833 0.0172764
rclavicle 0 0 0
rhumerus -38.6754 14.0857 -94.0125
rradius 58.795 -0 0
rwrist 10.2923 0 0
rhand -10.7571 -19.0384 0.00697297
rfingers 0 0 0
rthumb 15.2537 -48.4442 0.00935298
380
root 5.92245 16.5208 -15.0932 9.23586 -21.0488 -7.00524
lfemur -43.4197 15.4793 -10.6679
ltibia 50.362 -0 0
lfoot -8.685 6.16243 0.100073
ltoes 14.0143 -0 0
rfemur -18.5645 -1.45865 31.5259
rtibia 39.5595 -0 0
rfoot -22.9604 0.508882 0.00188284
rtoes 17.3734 -0 0
lowerback 4.61217 2.38661 4.1183
upperback 2.33784 3.33475 0.70672
thorax 0.0267337 1.69152 -1.71457
lowerneck -7.13587 -0.852811 3.86495
upperneck 0.189964 -1.5142 1.85024
head 1.24125 -0.712011 -0.122072
lclavicle 0 0 0
lhumerus -40.5618 -22.3932 93.5672
lradius 54.8574 -0 0
lwrist 18.302 0 0
lhand -19.7676 3.36715 0.020362
lfingers 0 0 0
lthumb 6.56379 33.2346 0.018445
rclavicle 0 0 0
rhumerus -39.0547 14.402 -94.1623
rradius 58.3308 -0 0
rwrist 10.3823 0 0
rhand -11.3035 -19.1367 0.00744463
rfingers 0 0 0
rthumb 14.7274 -48.5811 0.00998562
